<svg width="3" height="15" viewBox="0 0 3 15" fill="none" xmlns="http://www.w3.org/2000/svg">
<path d="M1.18395 2.36842C0.949739 2.36842 0.720784 2.29897 0.526042 2.16885C0.3313 2.03872 0.179517 1.85377 0.0898865 1.63739C0.000256379 1.421 -0.0231957 1.1829 0.0224973 0.953183C0.0681902 0.723469 0.180976 0.512462 0.346591 0.346848C0.512206 0.181233 0.723212 0.0684478 0.952926 0.0227547C1.18264 -0.0229383 1.42075 0.000513058 1.63713 0.0901432C1.85352 0.179773 2.03847 0.331557 2.16859 0.526299C2.29871 0.721041 2.36816 0.949996 2.36816 1.18421C2.36816 1.49828 2.2434 1.79949 2.02132 2.02157C1.79923 2.24366 1.49803 2.36842 1.18395 2.36842ZM2.36816 13.8158C2.36816 13.5816 2.29871 13.3526 2.16859 13.1579C2.03847 12.9631 1.85352 12.8114 1.63713 12.7217C1.42074 12.6321 1.18264 12.6086 0.952926 12.6543C0.723211 12.7 0.512205 12.8128 0.346591 12.9784C0.180976 13.144 0.0681897 13.355 0.0224967 13.5848C-0.0231962 13.8145 0.000255827 14.0526 0.0898859 14.269C0.179516 14.4854 0.331299 14.6703 0.526041 14.8004C0.720784 14.9305 0.949738 15 1.18395 15C1.49803 15 1.79923 14.8752 2.02132 14.6532C2.2434 14.4311 2.36816 14.1299 2.36816 13.8158ZM2.36816 7.5C2.36816 7.26579 2.29871 7.03683 2.16859 6.84209C2.03847 6.64735 1.85352 6.49556 1.63713 6.40593C1.42074 6.3163 1.18264 6.29285 0.952926 6.33854C0.723211 6.38424 0.512206 6.49702 0.346591 6.66264C0.180976 6.82825 0.0681899 7.03926 0.022497 7.26897C-0.0231959 7.49869 0.000256103 7.73679 0.0898862 7.95318C0.179516 8.16956 0.331299 8.35451 0.526042 8.48463C0.720784 8.61476 0.949738 8.68421 1.18395 8.68421C1.49803 8.68421 1.79923 8.55945 2.02132 8.33736C2.2434 8.11528 2.36816 7.81407 2.36816 7.5Z" fill="#0D99FF"/>
</svg>
